HIERARCHY
ROOT Pelvis
{
	OFFSET 0.000000 0.000000 0.000000
	CHANNELS 6 Xposition Yposition Zposition Xrotation Yrotation Zrotation
	JOINT LeftUpLeg_virtual
	{
		OFFSET 0.000000 0.000000 0.000000
		CHANNELS 3 Xrotation Yrotation Zrotation
		JOINT LeftUpLeg
		{
			OFFSET 18.735201 -5.666702 -4.541200
			CHANNELS 3 Xrotation Yrotation Zrotation
			JOINT LeftLeg
			{
				OFFSET -0.021200 -31.938179 0.493100
				CHANNELS 3 Xrotation Yrotation Zrotation
				JOINT LeftFoot
				{
					OFFSET 0.021200 -31.938179 -4.336299
					CHANNELS 3 Xrotation Yrotation Zrotation
					JOINT LeftToeBase
					{
						OFFSET 0.943001 -26.722000 15.023500
						CHANNELS 3 Xrotation Yrotation Zrotation
						End Site
						{
							OFFSET 0 0 0
						}
					}
				}
			}
		}
	}
	JOINT RightUpLeg_virtual
	{
		OFFSET 0.000000 0.000000 0.000000
		CHANNELS 3 Xrotation Yrotation Zrotation
		JOINT RightUpLeg
		{
			OFFSET -18.735201 -5.666702 -4.541200
			CHANNELS 3 Xrotation Yrotation Zrotation
			JOINT RightLeg
			{
				OFFSET 0.018946 -31.938133 0.493100
				CHANNELS 3 Xrotation Yrotation Zrotation
				JOINT RightFoot
				{
					OFFSET -0.018946 -31.938126 -4.336299
					CHANNELS 3 Xrotation Yrotation Zrotation
					JOINT RightToeBase
					{
						OFFSET -0.943001 -26.722004 15.023500
						CHANNELS 3 Xrotation Yrotation Zrotation
						End Site
						{
							OFFSET 0 0 0
						}
					}
				}
			}
		}
	}
	JOINT Hips_virtual
	{
		OFFSET 0.000000 0.000000 0.000000
		CHANNELS 3 Xrotation Yrotation Zrotation
		JOINT Hips
		{
			OFFSET -0.000000 -0.000000 -0.000000
			CHANNELS 3 Xrotation Yrotation Zrotation
			JOINT Spine
			{
				OFFSET 0.000000 10.199997 -0.299500
				CHANNELS 3 Xrotation Yrotation Zrotation
				JOINT Spine1
				{
					OFFSET 0.000000 11.900002 -1.516600
					CHANNELS 3 Xrotation Yrotation Zrotation
					JOINT Spine2
					{
						OFFSET 0.000000 13.600006 -2.842500
						CHANNELS 3 Xrotation Yrotation Zrotation
						JOINT Neck_virtual
						{
							OFFSET 0.000000 0.000000 0.000000
							CHANNELS 3 Xrotation Yrotation Zrotation
							JOINT Neck
							{
								OFFSET 0.000000 9.624100 -2.890100
								CHANNELS 3 Xrotation Yrotation Zrotation
								JOINT Head
								{
									OFFSET 0.000000 14.068802 -1.351900
									CHANNELS 3 Xrotation Yrotation Zrotation
									End Site
									{
										OFFSET 0 0 0
									}
								}
							}
						}
						JOINT LeftShoulder_virtual
						{
							OFFSET 0.000000 0.000000 0.000000
							CHANNELS 3 Xrotation Yrotation Zrotation
							JOINT LeftShoulder
							{
								OFFSET 15.263000 10.923401 -0.547700
								CHANNELS 3 Xrotation Yrotation Zrotation
								JOINT LeftArm
								{
									OFFSET 25.438599 -2.830597 -13.032500
									CHANNELS 3 Xrotation Yrotation Zrotation
									JOINT LeftForeArm
									{
										OFFSET 29.960503 0.000000 0.000000
										CHANNELS 3 Xrotation Yrotation Zrotation
										JOINT LeftHand
										{
											OFFSET 27.849251 0.000000 0.000000
											CHANNELS 3 Xrotation Yrotation Zrotation
											End Site
											{
												OFFSET 0 0 0
											}
										}
									}
								}
							}
						}
						JOINT RightShoulder_virtual
						{
							OFFSET 0.000000 0.000000 0.000000
							CHANNELS 3 Xrotation Yrotation Zrotation
							JOINT RightShoulder
							{
								OFFSET -15.263000 10.923401 -0.547700
								CHANNELS 3 Xrotation Yrotation Zrotation
								JOINT RightArm
								{
									OFFSET -25.438599 -2.830597 -13.032500
									CHANNELS 3 Xrotation Yrotation Zrotation
									JOINT RightForeArm
									{
										OFFSET -29.960503 0.000000 0.000000
										CHANNELS 3 Xrotation Yrotation Zrotation
										JOINT RightHand
										{
											OFFSET -27.849251 0.000000 0.000000
											CHANNELS 3 Xrotation Yrotation Zrotation
											End Site
											{
												OFFSET 0 0 0
											}
										}
									}
								}
							}
						}
					}
				}
			}
		}
	}
}
MOTION
Frames: 11
Frame Time: 0.03333333
-1.973904 80.526741 1.530706 0.000000 0.000000 0.000000 0.812010 -35.986371 3.236640 -43.303362 -0.508759 18.490476 47.364169 -9.596676 -1.379224 -7.804156 -8.253859 -14.168266 0.000000 0.000000 0.000000 6.140768 -40.466337 -3.147534 -25.166459 -14.920475 -23.830308 47.368393 -1.001095 -0.519369 -10.851802 -4.193387 10.260192 0.000000 0.000000 0.000000 -2.322416 -20.452841 0.535594 -2.012450 -13.471034 -0.840147 8.184148 3.730101 -2.221237 2.783443 2.264513 -1.066824 0.000000 0.000000 0.000000 3.783575 2.575996 -0.205774 0.029047 2.272764 -0.011680 0.000000 0.000000 0.000000 2.174492 1.855586 -0.634693 1.164010 2.840823 -6.324255 -49.615915 -16.635923 -59.245273 -49.755715 -79.525013 -45.711041 0.000000 0.000000 0.000000 2.863047 1.346295 -1.635626 2.506659 11.770428 -1.529437 -35.407680 37.131804 65.627517 -171.099831 65.250983 172.699038 0.000000 0.000000 0.000000 
-1.984388 80.517815 1.501634 0.000000 0.000000 0.000000 0.826434 -35.826951 3.230322 -43.282786 -0.461445 18.501111 47.305183 -9.635046 -1.395506 -7.896879 -8.257461 -14.229897 0.000000 0.000000 0.000000 6.146126 -40.571969 -3.152238 -25.156726 -14.942828 -23.843671 47.347035 -0.995317 -0.483894 -10.892003 -4.208525 10.301751 0.000000 0.000000 0.000000 -2.350143 -20.651862 0.562967 -1.928588 -13.221888 -0.893158 8.207422 3.734548 -2.247648 2.783597 2.285008 -1.051819 0.000000 0.000000 0.000000 3.779895 2.564482 -0.214361 0.031041 2.289224 -0.018190 0.000000 0.000000 0.000000 2.168974 1.830161 -0.661363 1.181352 2.847038 -6.359864 -49.844743 -16.830204 -59.073527 -50.307881 -79.680160 -46.245951 0.000000 0.000000 0.000000 2.833493 1.338738 -1.628977 2.535674 11.694087 -1.519740 -35.458428 37.133020 65.583832 -171.049411 65.029514 172.647607 0.000000 0.000000 0.000000 
-2.005079 80.508659 1.443093 0.000000 0.000000 0.000000 0.852852 -35.544311 3.216169 -43.243960 -0.376529 18.517020 47.188216 -9.701787 -1.424412 -8.071520 -8.260152 -14.340225 0.000000 0.000000 0.000000 6.151108 -40.756791 -3.156277 -25.148598 -14.980072 -23.864526 47.308465 -0.975719 -0.420941 -10.960784 -4.226731 10.380756 0.000000 0.000000 0.000000 -2.412118 -21.050664 0.613028 -1.758193 -12.739769 -1.001160 8.241089 3.751288 -2.291820 2.781906 2.322639 -1.023846 0.000000 0.000000 0.000000 3.767772 2.546117 -0.231650 0.035179 2.319313 -0.031111 0.000000 0.000000 0.000000 2.160077 1.779983 -0.712947 1.214517 2.846244 -6.427006 -50.243671 -17.180644 -58.736533 -51.376690 -79.966147 -47.286790 0.000000 0.000000 0.000000 2.779554 1.325959 -1.617904 2.589662 11.556189 -1.515113 -35.549400 37.152712 65.493468 -170.971629 64.638410 172.575767 0.000000 0.000000 0.000000 
-2.033403 80.512932 1.357569 0.000000 0.000000 0.000000 0.887284 -35.197529 3.192654 -43.190923 -0.270166 18.530228 47.016174 -9.779692 -1.460894 -8.308742 -8.253741 -14.478895 0.000000 0.000000 0.000000 6.147735 -40.977812 -3.150758 -25.158262 -15.020704 -23.883375 47.256583 -0.928076 -0.344579 -11.040957 -4.227076 10.489975 0.000000 0.000000 0.000000 -2.516332 -21.643640 0.678686 -1.499085 -12.054226 -1.165774 8.266388 3.791689 -2.341333 2.774242 2.371775 -0.986799 0.000000 0.000000 0.000000 3.741137 2.528202 -0.257723 0.042023 2.358342 -0.050205 0.000000 0.000000 0.000000 2.151052 1.707471 -0.785421 1.261396 2.820332 -6.518326 -50.721791 -17.620775 -58.250135 -52.894617 -80.340052 -48.775795 0.000000 0.000000 0.000000 2.708967 1.311968 -1.606443 2.661258 11.381626 -1.538877 -35.664806 37.216745 65.352131 -170.900868 64.160120 172.527655 0.000000 0.000000 0.000000 
-2.062483 80.543915 1.254960 0.000000 0.000000 0.000000 0.926155 -34.848240 3.160288 -43.127840 -0.159763 18.534080 46.795132 -9.848451 -1.501911 -8.584426 -8.227518 -14.626263 0.000000 0.000000 0.000000 6.130590 -41.191139 -3.126257 -25.197596 -15.054343 -23.890784 47.189470 -0.835785 -0.271815 -11.118261 -4.185449 10.620192 0.000000 0.000000 0.000000 -2.665519 -22.409234 0.753676 -1.154303 -11.206351 -1.384357 8.268531 3.864207 -2.386589 2.754822 2.426142 -0.945942 0.000000 0.000000 0.000000 3.697193 2.517801 -0.292240 0.052758 2.401316 -0.074989 0.000000 0.000000 0.000000 2.145086 1.618079 -0.871948 1.320364 2.758202 -6.624099 -51.192227 -18.072059 -57.642282 -54.751633 -80.747343 -50.611480 0.000000 0.000000 0.000000 2.628688 1.301405 -1.599471 2.741431 11.199037 -1.613622 -35.790809 37.346989 65.157040 -170.868411 63.677594 172.538269 0.000000 0.000000 0.000000 
-2.081419 80.610161 1.155391 0.000000 0.000000 0.000000 0.968951 -34.543190 3.122815 -43.056307 -0.059016 18.526000 46.534291 -9.888523 -1.549198 -8.874191 -8.169240 -14.770163 0.000000 0.000000 0.000000 6.100371 -41.366481 -3.075656 -25.267341 -15.076277 -23.881010 47.096446 -0.684867 -0.219243 -11.187753 -4.081029 10.760663 0.000000 0.000000 0.000000 -2.853588 -23.304366 0.834586 -0.736202 -10.251322 -1.646156 8.243671 3.969233 -2.425131 2.717948 2.480235 -0.906989 0.000000 0.000000 0.000000 3.639065 2.519511 -0.333903 0.069055 2.444442 -0.104559 0.000000 0.000000 0.000000 2.144753 1.520688 -0.962964 1.390577 2.664366 -6.732309 -51.598784 -18.461952 -56.951227 -56.756543 -81.129649 -52.606366 0.000000 0.000000 0.000000 2.542846 1.298443 -1.601234 2.822106 11.035613 -1.752984 -35.920856 37.551308 64.910156 -170.892685 63.250735 172.619794 0.000000 0.000000 0.000000 
-2.078346 80.713867 1.088309 0.000000 0.000000 0.000000 1.020626 -34.306524 3.087338 -42.972859 0.024791 18.508298 46.244059 -9.883758 -1.609752 -9.158035 -8.066262 -14.908363 0.000000 0.000000 0.000000 6.065016 -41.494922 -2.995648 -25.355505 -15.089268 -23.854057 46.960078 -0.468271 -0.200309 -11.255122 -3.901337 10.899382 0.000000 0.000000 0.000000 -3.067791 -24.269571 0.920433 -0.267109 -9.261220 -1.931044 8.199476 4.097968 -2.461398 2.660523 2.529925 -0.874904 0.000000 0.000000 0.000000 3.575014 2.534902 -0.380245 0.092531 2.486068 -0.137518 0.000000 0.000000 0.000000 2.151975 1.426581 -1.047159 1.471137 2.559694 -6.827660 -51.921947 -18.739244 -56.216575 -58.583209 -81.432254 -54.432124 0.000000 0.000000 0.000000 2.453178 1.305878 -1.613965 2.898942 10.913929 -1.957961 -36.057067 37.820229 64.619757 -170.976505 62.908105 172.760674 0.000000 0.000000 0.000000 
-2.044786 80.851723 1.087384 0.000000 0.000000 0.000000 1.092202 -34.142941 3.063435 -42.868303 0.090433 18.487128 45.932486 -9.822948 -1.693549 -9.424267 -7.907196 -15.046307 0.000000 0.000000 0.000000 6.038998 -41.587799 -2.885783 -25.440862 -15.102308 -23.815082 46.762426 -0.187572 -0.223777 -11.332883 -3.644054 11.023755 0.000000 0.000000 0.000000 -3.294823 -25.244823 1.010127 0.224147 -8.321914 -2.212520 8.149636 4.235474 -2.502598 2.583951 2.572072 -0.852761 0.000000 0.000000 0.000000 3.514776 2.563359 -0.428113 0.123953 2.526732 -0.172125 0.000000 0.000000 0.000000 2.167777 1.347348 -1.113188 1.559513 2.474284 -6.890049 -52.168633 -18.883304 -55.465197 -59.760405 -81.612318 -55.609542 0.000000 0.000000 0.000000 2.360967 1.324473 -1.637306 2.972870 10.849648 -2.218360 -36.207950 38.131778 64.299012 -171.109722 62.652014 172.934038 0.000000 0.000000 0.000000 
-1.979114 81.017036 1.182659 0.000000 0.000000 0.000000 1.199183 -34.047711 3.061913 -42.729476 0.140108 18.470664 45.602690 -9.700568 -1.809472 -9.671389 -7.684161 -15.191918 0.000000 0.000000 0.000000 6.041885 -41.668816 -2.745174 -25.498758 -15.127368 -23.771037 46.492780 0.148525 -0.293598 -11.433797 -3.315315 11.121900 0.000000 0.000000 0.000000 -3.526185 -26.189187 1.099820 0.708842 -7.520920 -2.463835 8.106108 4.365518 -2.553330 2.493933 2.603579 -0.841163 0.000000 0.000000 0.000000 3.465254 2.603291 -0.474740 0.162517 2.568377 -0.206657 0.000000 0.000000 0.000000 2.191495 1.292401 -1.151645 1.650191 2.436876 -6.894439 -52.356474 -18.905093 -54.699218 -59.765207 -81.642030 -55.603187 0.000000 0.000000 0.000000 2.268784 1.352592 -1.668808 3.049093 10.849265 -2.517381 -36.384384 38.460986 63.961341 -171.275272 62.469054 173.109300 0.000000 0.000000 0.000000 
-1.887385 81.201912 1.392566 0.000000 0.000000 0.000000 1.357929 -34.016442 3.093044 -42.543230 0.176496 18.467045 45.253449 -9.516848 -1.961568 -9.906652 -7.394683 -15.350393 0.000000 0.000000 0.000000 6.096280 -41.764305 -2.568784 -25.506993 -15.176095 -23.726308 46.153412 0.527709 -0.410004 -11.564671 -2.925732 11.183998 0.000000 0.000000 0.000000 -3.758229 -27.092311 1.182710 1.163867 -6.932741 -2.663967 8.073716 4.474232 -2.612248 2.398359 2.620498 -0.838483 0.000000 0.000000 0.000000 3.427815 2.652638 -0.518684 0.205449 2.613073 -0.239788 0.000000 0.000000 0.000000 2.220056 1.266894 -1.156673 1.734630 2.465613 -6.813510 -52.501960 -18.840372 -53.892187 -58.198847 -81.502038 -53.998598 0.000000 0.000000 0.000000 2.180672 1.386157 -1.705006 3.133893 10.908391 -2.836680 -36.595245 38.790751 63.614811 -171.456886 62.339321 173.262788 0.000000 0.000000 0.000000 
-1.781219 81.398972 1.718527 0.000000 0.000000 0.000000 1.581073 -34.050064 3.164190 -42.301025 0.201038 18.482270 44.882966 -9.277034 -2.147473 -10.141631 -7.042339 -15.521350 0.000000 0.000000 0.000000 6.224220 -41.895516 -2.346257 -25.450279 -15.257367 -23.679603 45.761021 0.937511 -0.570975 -11.723033 -2.486495 11.203161 0.000000 0.000000 0.000000 -3.987759 -27.972029 1.251807 1.573778 -6.609345 -2.800357 8.049033 4.550815 -2.672199 2.304449 2.617960 -0.841772 0.000000 0.000000 0.000000 3.398018 2.708502 -0.560024 0.248179 2.661764 -0.270756 0.000000 0.000000 0.000000 2.248332 1.270550 -1.126788 1.803102 2.563332 -6.623057 -52.613808 -18.737599 -52.995451 -54.946191 -81.169292 -50.664356 0.000000 0.000000 0.000000 2.100754 1.419012 -1.742360 3.230655 11.011841 -3.159762 -36.843912 39.119837 63.259047 -171.645482 62.241752 173.384543 0.000000 0.000000 0.000000 
